<svg width="286" height="59" viewBox="0 0 286 59" fill="none" xmlns="http://www.w3.org/2000/svg">
<path d="M6.58575 9.23335C11.5927 4.83584 19.0685 3.7866 25.225 6.18595C34.0432 9.34907 39.1428 19.8182 36.6971 28.7598C35.6248 32.4784 33.5417 35.7804 31.5436 39.0593C29.7228 35.927 27.1538 33.3271 23.9829 31.5604C26.552 28.8678 28.2878 24.8484 26.5211 21.2532C24.4072 15.575 16.0751 13.9086 12.1328 18.6301C8.42962 22.2716 9.502 28.2275 12.9197 31.6607C9.75659 33.1959 7.34181 35.8113 5.86055 38.9821C2.34254 34.6078 -0.473414 29.2227 0.0666307 23.4365C-0.226537 17.9744 2.57398 12.7899 6.58575 9.23335Z" fill="#515DEF"/>
<path d="M66.9521 44.4338C64.9013 44.4338 62.9952 44.0789 61.2336 43.369C59.4721 42.6328 57.9208 41.6206 56.58 40.3323C55.2654 39.0177 54.2268 37.5059 53.4644 35.797C52.7282 34.0617 52.3601 32.195 52.3601 30.1968C52.3601 28.1986 52.7282 26.3451 53.4644 24.6361C54.2268 22.9008 55.2654 21.3891 56.58 20.1008C57.9208 18.7862 59.4721 17.7739 61.2336 17.0641C62.9952 16.3279 64.9013 15.9598 66.9521 15.9598C69.0028 15.9598 70.909 16.3279 72.6705 17.0641C74.4584 17.7739 76.0096 18.7862 77.3242 20.1008C78.6651 21.3891 79.7036 22.9008 80.4398 24.6361C81.1759 26.3451 81.544 28.1986 81.544 30.1968C81.544 32.195 81.1759 34.0617 80.4398 35.797C79.7036 37.5059 78.6651 39.0177 77.3242 40.3323C76.0096 41.6206 74.4584 42.6328 72.6705 43.369C70.909 44.0789 69.0028 44.4338 66.9521 44.4338ZM66.9521 39.1886C68.2141 39.1886 69.3709 38.9651 70.4226 38.5182C71.4743 38.0449 72.3945 37.4139 73.1832 36.6252C73.972 35.8101 74.5898 34.8505 75.0368 33.7462C75.4837 32.6419 75.7072 31.4588 75.7072 30.1968C75.7072 28.9085 75.4837 27.7254 75.0368 26.6474C74.5898 25.5432 73.972 24.5967 73.1832 23.8079C72.3945 22.9929 71.4743 22.3619 70.4226 21.9149C69.3709 21.4416 68.2141 21.205 66.9521 21.205C65.7164 21.205 64.5727 21.4416 63.521 21.9149C62.4693 22.3619 61.5491 22.9929 60.7604 23.8079C59.9716 24.5967 59.3537 25.5432 58.9068 26.6474C58.4598 27.7254 58.2363 28.8954 58.2363 30.1574C58.2363 31.4457 58.4598 32.6419 58.9068 33.7462C59.3537 34.8505 59.9716 35.8101 60.7604 36.6252C61.5491 37.4139 62.4693 38.0449 63.521 38.5182C64.5727 38.9651 65.7164 39.1886 66.9521 39.1886ZM85.1122 44V16.3936H90.5546L104.279 34.2195V16.3936H109.642V44H104.594L90.5152 25.5432V44H85.1122ZM122.461 44.4338C120.541 44.4338 118.845 44.1052 117.373 43.4479C115.927 42.7906 114.797 41.8704 113.981 40.6872C113.166 39.4778 112.759 38.0975 112.759 36.5463C112.759 35.442 112.93 34.4561 113.272 33.5885C113.613 32.7208 114.166 31.9189 114.928 31.1828C115.717 30.4466 116.768 29.6973 118.083 28.9348C117.242 27.8568 116.65 26.8578 116.308 25.9375C115.967 24.991 115.796 23.9788 115.796 22.9008C115.796 21.5863 116.124 20.4031 116.782 19.3515C117.439 18.2998 118.346 17.4716 119.503 16.8669C120.686 16.2622 122.014 15.9598 123.486 15.9598C124.932 15.9598 126.207 16.249 127.311 16.8274C128.442 17.3796 129.336 18.142 129.993 19.1148C130.65 20.0876 130.979 21.205 130.979 22.467C130.979 23.6765 130.65 24.7807 129.993 25.7798C129.362 26.7526 128.389 27.6465 127.075 28.4616L125.063 29.6841C125.852 30.4992 126.694 31.3537 127.587 32.2476C128.481 33.1152 129.402 33.9828 130.348 34.8505C130.821 33.9828 131.229 33.0232 131.571 31.9715C131.939 30.9198 132.254 29.8024 132.517 28.6193L137.171 29.3686C136.776 31.1039 136.303 32.6814 135.751 34.1011C135.199 35.5209 134.555 36.7829 133.819 37.8872C134.502 38.4656 135.146 39.0046 135.751 39.5041C136.382 39.9774 137.053 40.4769 137.762 41.0027L134.529 44.8282C133.924 44.3286 133.28 43.8291 132.596 43.3296C131.939 42.8037 131.281 42.2647 130.624 41.7126C129.52 42.6065 128.271 43.2901 126.878 43.7634C125.51 44.2103 124.038 44.4338 122.461 44.4338ZM122.461 26.608L124.078 25.6615C124.787 25.2145 125.3 24.7544 125.616 24.2812C125.931 23.7816 126.089 23.2295 126.089 22.6248C126.089 21.8623 125.826 21.2313 125.3 20.7318C124.774 20.2059 124.13 19.943 123.368 19.943C122.579 19.943 121.922 20.2191 121.396 20.7712C120.896 21.297 120.646 21.9806 120.646 22.822C120.646 23.4004 120.778 23.9657 121.041 24.5178C121.304 25.0699 121.777 25.7666 122.461 26.608ZM122.855 40.1745C123.67 40.1745 124.446 40.0562 125.182 39.8196C125.918 39.583 126.588 39.2149 127.193 38.7154C126.01 37.6374 124.866 36.5463 123.762 35.442C122.684 34.3378 121.659 33.2335 120.686 32.1293C119.95 32.5499 119.358 32.9706 118.911 33.3913C118.491 33.7856 118.188 34.2063 118.004 34.6533C117.82 35.1002 117.728 35.5998 117.728 36.1519C117.728 37.3876 118.188 38.3736 119.108 39.1097C120.029 39.8196 121.277 40.1745 122.855 40.1745ZM154.08 44.4338C152.029 44.4338 150.123 44.0789 148.362 43.369C146.6 42.6328 145.049 41.6206 143.708 40.3323C142.393 39.0177 141.355 37.5059 140.592 35.797C139.856 34.0617 139.488 32.195 139.488 30.1968C139.488 28.1986 139.856 26.3451 140.592 24.6361C141.355 22.9008 142.393 21.3891 143.708 20.1008C145.049 18.7862 146.6 17.7739 148.362 17.0641C150.123 16.3279 152.029 15.9598 154.08 15.9598C156.131 15.9598 158.037 16.3279 159.799 17.0641C161.586 17.7739 163.138 18.7862 164.452 20.1008C165.793 21.3891 166.832 22.9008 167.568 24.6361C168.304 26.3451 168.672 28.1986 168.672 30.1968C168.672 32.195 168.304 34.0617 167.568 35.797C166.832 37.5059 165.793 39.0177 164.452 40.3323C163.138 41.6206 161.586 42.6328 159.799 43.369C158.037 44.0789 156.131 44.4338 154.08 44.4338ZM154.08 39.1886C155.342 39.1886 156.499 38.9651 157.551 38.5182C158.602 38.0449 159.522 37.4139 160.311 36.6252C161.1 35.8101 161.718 34.8505 162.165 33.7462C162.612 32.6419 162.835 31.4588 162.835 30.1968C162.835 28.9085 162.612 27.7254 162.165 26.6474C161.718 25.5432 161.1 24.5967 160.311 23.8079C159.522 22.9929 158.602 22.3619 157.551 21.9149C156.499 21.4416 155.342 21.205 154.08 21.205C152.844 21.205 151.701 21.4416 150.649 21.9149C149.597 22.3619 148.677 22.9929 147.888 23.8079C147.1 24.5967 146.482 25.5432 146.035 26.6474C145.588 27.7254 145.364 28.8954 145.364 30.1574C145.364 31.4457 145.588 32.6419 146.035 33.7462C146.482 34.8505 147.1 35.8101 147.888 36.6252C148.677 37.4139 149.597 38.0449 150.649 38.5182C151.701 38.9651 152.844 39.1886 154.08 39.1886ZM172.24 44V16.3936H177.683L191.407 34.2195V16.3936H196.77V44H191.722L177.643 25.5432V44H172.24ZM201.386 44V16.3936H222.721V21.3628H207.104V27.87H217.476V32.6814H207.104V44H201.386ZM226.179 44V16.3936H231.897V44H226.179ZM244.062 44V21.4416H234.755V16.3936H259.049V21.4416H249.781V44H244.062ZM269.78 44V21.4416H260.473V16.3936H284.766V21.4416H275.498V44H269.78Z" fill="#313131"/>
<path d="M16.258 39.0325C16.3205 38.9074 16.4192 38.804 16.5411 38.7357C16.6631 38.6673 16.8028 38.6372 16.9421 38.6493C17.0814 38.6613 17.2139 38.7149 17.3223 38.8031C17.4308 38.8914 17.5102 39.0102 17.5503 39.1441L19.1374 44.4354L20.4454 41.8229C20.5033 41.707 20.5924 41.6096 20.7026 41.5415C20.8128 41.4734 20.9398 41.4373 21.0693 41.4373C21.1988 41.4373 21.3258 41.4734 21.436 41.5415C21.5462 41.6096 21.6353 41.707 21.6932 41.8229L22.894 44.2279H27.1127C27.7408 42.9329 28.0594 41.5097 28.0436 40.0706C28.0161 37.3626 25.8435 35.1591 23.2005 35.1591C21.1037 35.1591 19.7125 36.447 18.9748 37.3827C18.2388 36.4457 16.8458 35.1591 14.749 35.1591C12.106 35.1591 9.93341 37.3626 9.90594 40.0706C9.89465 41.0057 10.0259 41.9371 10.2953 42.8327H14.3579L16.258 39.0325Z" fill="#515DEF"/>
<path d="M21.8389 45.2376L21.0676 43.6951L19.5987 46.6328C19.5407 46.7487 19.4517 46.8461 19.3415 46.9142C19.2313 46.9822 19.1043 47.0183 18.9748 47.0183C18.9553 47.0183 18.9352 47.0174 18.9146 47.0157C18.775 47.0041 18.6421 46.9507 18.5332 46.8625C18.4243 46.7743 18.3445 46.6554 18.3042 46.5212L16.7172 41.2299L15.4092 43.8424C15.3515 43.9577 15.2631 44.0547 15.1536 44.1227C15.0442 44.1908 14.918 44.2272 14.7892 44.2279H10.8368C11.2438 45.0792 11.7854 45.9172 12.4618 46.7418C13.2802 47.7394 14.7639 49.3343 18.1904 51.6604C18.4215 51.8187 18.6951 51.9035 18.9752 51.9035C19.2554 51.9035 19.5289 51.8187 19.76 51.6604C23.1865 49.3343 24.6703 47.7394 25.4886 46.7418C25.7834 46.3831 26.0599 46.0097 26.317 45.6231H22.4628C22.3333 45.6231 22.2063 45.587 22.0961 45.519C21.9859 45.4509 21.8968 45.3535 21.8389 45.2376ZM28.0436 44.2279H27.1127C26.8808 44.7112 26.6149 45.1774 26.317 45.6231H28.0436C28.2286 45.6231 28.406 45.5496 28.5369 45.4188C28.6677 45.2879 28.7412 45.1105 28.7412 44.9255C28.7412 44.7405 28.6677 44.563 28.5369 44.4322C28.406 44.3014 28.2286 44.2279 28.0436 44.2279ZM9.90597 42.8327C9.72096 42.8327 9.54352 42.9062 9.4127 43.037C9.28187 43.1678 9.20837 43.3453 9.20837 43.5303C9.20837 43.7153 9.28187 43.8927 9.4127 44.0236C9.54352 44.1544 9.72096 44.2279 9.90597 44.2279H10.8368C10.6211 43.7773 10.44 43.3108 10.2953 42.8327H9.90597Z" fill="#515DEF"/>
</svg>
